Coordinates
version=1
nRows=7
nColumns=40
inDegrees=yes

Units are S.I. units (second, meters, Newtons, ...)
Angles are in degrees.

endheader
time	pelvis_tilt	pelvis_list	pelvis_rotation	pelvis_tx	pelvis_ty	pelvis_tz	hip_flexion_r	hip_adduction_r	hip_rotation_r	knee_angle_r	knee_angle_r_beta	ankle_angle_r	subtalar_angle_r	mtp_angle_r	hip_flexion_l	hip_adduction_l	hip_rotation_l	knee_angle_l	knee_angle_l_beta	ankle_angle_l	subtalar_angle_l	mtp_angle_l	lumbar_extension	lumbar_bending	lumbar_rotation	arm_flex_r	arm_add_r	arm_rot_r	elbow_flex_r	pro_sup_r	wrist_flex_r	wrist_dev_r	arm_flex_l	arm_add_l	arm_rot_l	elbow_flex_l	pro_sup_l	wrist_flex_l	wrist_dev_l
     45.12500000	     -3.11001941	     -3.95290472	     -2.44243016	      1.08427038	      0.91385910	      0.42379846	     22.72626212	     -7.78093129	      3.40526424	     61.47669989	     61.47669989	     -2.77139034	    -10.44359999	    -17.96978588	     19.07645379	     -4.07262382	     -3.11834867	     34.09233126	     34.09233126	     19.77652490	    -16.60752980	      5.66206223	    -10.65904544	      8.33464494	      2.32349606	      3.59281953	    -12.95367923	     -6.86405524	     23.02674244	     47.16263318	      0.00000000	      0.00000000	     31.51410771	    -17.91759607	      8.74655026	     52.95205492	     47.11908201	      0.00000000	      0.00000000
     45.14571429	     -3.04876225	     -4.08841822	     -3.06530651	      1.08376108	      0.91485150	      0.42307961	     24.41046989	     -7.48152755	      3.64564533	     63.52656256	     63.52656256	     -1.02089014	     -9.41605336	     -9.16129349	     18.37789062	     -4.30724395	     -3.77769169	     33.60389616	     33.60389616	     19.86213740	    -16.40528171	      5.37698046	    -10.94124969	      8.63001255	      1.79364054	     -0.11944539	    -12.95520925	     -8.15113043	     23.52856981	     47.19578806	      0.00000000	      0.00000000	     32.03292154	    -18.97997468	      5.40493849	     56.87813720	     47.40550129	      0.00000000	      0.00000000
     45.16642857	     -3.08315684	     -4.19383866	     -3.77174019	      1.08329996	      0.91644067	      0.42306908	     25.67736630	     -7.12934710	      3.81633658	     64.15752190	     64.15752190	     -1.20665585	    -10.34323876	     -7.57780496	     17.59592635	     -4.51136380	     -4.42667482	     32.79910455	     32.79910455	     19.85937389	    -16.32586309	      5.43218521	    -11.01724210	      8.80254116	      1.82662627	     -3.43132054	    -12.96443355	     -8.42649719	     22.60368598	     47.21965753	      0.00000000	      0.00000000	     33.61390407	    -19.85190532	      4.27726158	     58.60230006	     47.51728246	      0.00000000	      0.00000000
     45.18714286	     -3.19063810	     -4.23292342	     -4.59121658	      1.08287369	      0.91854160	      0.42368194	     26.75024238	     -6.80764988	      3.95709626	     63.90693987	     63.90693987	     -0.94115151	    -11.07719821	     -6.59267140	     16.68960749	     -4.68098675	     -5.22581622	     31.63175284	     31.63175284	     19.69889459	    -16.19005354	      5.61410849	    -11.01977782	      8.83826741	      1.67923970	     -6.43197819	    -12.91978600	     -8.71254959	     22.16949292	     47.22731319	      0.00000000	      0.00000000	     34.97188866	    -20.99925486	      3.10736209	     60.23617494	     47.63408700	      0.00000000	      0.00000000
     45.20785714	     -3.41221753	     -4.39527873	     -5.45042489	      1.08242490	      0.92083701	      0.42487874	     27.66238315	     -6.39381011	      3.86372429	     62.83054338	     62.83054338	      0.15928205	    -11.20224580	     -5.08645326	     15.82143547	     -5.01097858	     -6.02813531	     30.32940033	     30.32940033	     19.30157414	    -16.08578184	      5.33075467	    -10.99149236	      9.03663004	      1.37867920	     -9.76389399	    -12.85596144	     -9.68657301	     23.84794377	     47.17634537	      0.00000000	      0.00000000	     35.43057307	    -22.08659764	      0.41738150	     63.64402066	     47.85963809	      0.00000000	      0.00000000
     45.22857143	     -3.60973401	     -4.54346503	     -6.40527888	      1.08190757	      0.92348945	      0.42672079	     28.18618425	     -5.92540252	      3.77200774	     60.69596779	     60.69596779	      1.18193311	    -11.33462359	     -5.24968627	     14.79895083	     -5.32182608	     -6.86699064	     28.82388849	     28.82388849	     18.99914710	    -15.97988755	      5.66555878	    -10.94484763	      9.12202625	      1.50588020	    -12.21076576	    -12.74811040	     -9.88653164	     23.55146558	     47.17273815	      0.00000000	      0.00000000	     36.80677519	    -23.11853828	     -0.61351605	     65.13461965	     47.96072281	      0.00000000	      0.00000000
     45.24928571	     -3.90541824	     -4.73938641	     -7.38211168	      1.08127743	      0.92606941	      0.42910985	     28.47040635	     -5.38447304	      3.56020357	     57.63891519	     57.63891519	      2.45331002	    -10.99232287	     -5.80692087	     13.85849460	     -5.70804929	     -7.72271674	     27.29041066	     27.29041066	     18.64387614	    -15.84324827	      5.99608350	    -10.84163384	      9.25784772	      1.66654708	    -14.40898911	    -12.60789945	    -10.13863456	     23.65315561	     47.15845321	      0.00000000	      0.00000000	     37.98041052	    -24.07383285	     -1.72612962	     66.80077066	     48.07029189	      0.00000000	      0.00000000
